HIERARCHY
ROOT Hips
{
	OFFSET 0.00000 0.00000 0.00000
	CHANNELS 6 Xposition Yposition Zposition Zrotation Yrotation Xrotation 
	JOINT LHipJoint
	{
		OFFSET 0 0 0
		CHANNELS 3 Zrotation Yrotation Xrotation
		JOINT LeftUpLeg
		{
			OFFSET 1.54859 -1.61379 0.86856
			CHANNELS 3 Zrotation Yrotation Xrotation
			JOINT LeftLeg
			{
				OFFSET 2.25087 -6.18423 0.00000
				CHANNELS 3 Zrotation Yrotation Xrotation
				JOINT LeftFoot
				{
					OFFSET 2.40328 -6.60297 0.00000
					CHANNELS 3 Zrotation Yrotation Xrotation
					JOINT LeftToeBase
					{
						OFFSET 0.17435 -0.47901 2.02453
						CHANNELS 3 Zrotation Yrotation Xrotation
						End Site
						{
							OFFSET 0.00000 -0.00000 1.04844
						}
					}
				}
			}
		}
	}
	JOINT RHipJoint
	{
		OFFSET 0 0 0
		CHANNELS 3 Zrotation Yrotation Xrotation
		JOINT RightUpLeg
		{
			OFFSET -1.54669 -1.61379 0.86856
			CHANNELS 3 Zrotation Yrotation Xrotation
			JOINT RightLeg
			{
				OFFSET -2.28132 -6.26789 0.00000
				CHANNELS 3 Zrotation Yrotation Xrotation
				JOINT RightFoot
				{
					OFFSET -2.51636 -6.91365 0.00000
					CHANNELS 3 Zrotation Yrotation Xrotation
					JOINT RightToeBase
					{
						OFFSET -0.15124 -0.41552 2.21090
						CHANNELS 3 Zrotation Yrotation Xrotation
						End Site
						{
							OFFSET -0.00000 -0.00000 1.13399
						}
					}
				}
			}
		}
	}
	JOINT LowerBack
	{
		OFFSET 0 0 0
		CHANNELS 3 Zrotation Yrotation Xrotation
		JOINT Spine
		{
			OFFSET -0.04287 2.26161 -0.25690
			CHANNELS 3 Zrotation Yrotation Xrotation
			JOINT Spine1
			{
				OFFSET 0.02248 2.28395 -0.10140
				CHANNELS 3 Zrotation Yrotation Xrotation
				JOINT Neck
				{
					OFFSET 0 0 0
					CHANNELS 3 Zrotation Yrotation Xrotation
					JOINT Neck1
					{
						OFFSET -0.11644 1.38496 0.11345
						CHANNELS 3 Zrotation Yrotation Xrotation
						JOINT Head
						{
							OFFSET 0.29383 1.36600 0.06642
							CHANNELS 3 Zrotation Yrotation Xrotation
							End Site
							{
								OFFSET 0.11075 1.41395 -0.00294
							}
						}
					}
				}
				JOINT LeftShoulder
				{
					OFFSET 0 0 0
					CHANNELS 3 Zrotation Yrotation Xrotation
					JOINT LeftArm
					{
						OFFSET 3.51628 0.59542 -0.30346
						CHANNELS 3 Zrotation Yrotation Xrotation
						JOINT LeftForeArm
						{
							OFFSET 4.76405 -0.00000 0.00000
							CHANNELS 3 Zrotation Yrotation Xrotation
							JOINT LeftHand
							{
								OFFSET 3.13759 -0.00000 -0.00000
								CHANNELS 3 Zrotation Yrotation Xrotation
								JOINT LeftFingerBase
								{
									OFFSET 0 0 0
									CHANNELS 3 Zrotation Yrotation Xrotation
									JOINT LeftHandIndex1
									{
										OFFSET 0.73226 -0.00000 -0.00000
										CHANNELS 3 Zrotation Yrotation Xrotation
										End Site
										{
											OFFSET 0.59037 -0.00000 -0.00000
										}
									}
								}
								JOINT LThumb
								{
									OFFSET 0 0 0
									CHANNELS 3 Zrotation Yrotation Xrotation
									End Site
									{
										OFFSET 0.59938 -0.00000 0.59938
									}
								}
							}
						}
					}
				}
				JOINT RightShoulder
				{
					OFFSET 0 0 0
					CHANNELS 3 Zrotation Yrotation Xrotation
					JOINT RightArm
					{
						OFFSET -3.30990 0.84213 -0.36430
						CHANNELS 3 Zrotation Yrotation Xrotation
						JOINT RightForeArm
						{
							OFFSET -5.10161 -0.00000 -0.00000
							CHANNELS 3 Zrotation Yrotation Xrotation
							JOINT RightHand
							{
								OFFSET -3.23267 -0.00000 -0.00000
								CHANNELS 3 Zrotation Yrotation Xrotation
								JOINT RightFingerBase
								{
									OFFSET 0 0 0
									CHANNELS 3 Zrotation Yrotation Xrotation
									JOINT RightHandIndex1
									{
										OFFSET -0.70200 -0.00000 -0.00000
										CHANNELS 3 Zrotation Yrotation Xrotation
										End Site
										{
											OFFSET -0.56597 -0.00000 -0.00000
										}
									}
								}
								JOINT RThumb
								{
									OFFSET 0 0 0
									CHANNELS 3 Zrotation Yrotation Xrotation
									End Site
									{
										OFFSET -0.57461 -0.00000 0.57461
									}
								}
							}
						}
					}
				}
			}
		}
	}
}
MOTION
Frames: 8
Frame Time: 0.0571429
0.00 0.00 0.00 188.6880 15.4154 201.2100 0.0000 0.0000 0.0000 -23.5362 7.3451 -19.9370 8.7599 16.6507 55.2562 -1.2556 20.0049 -13.0256 8.9398 16.7688 55.8817 0.0000 0.0000 0.0000 13.8519 2.2495 -52.5697 -23.2323 -19.7476 99.4890 -0.3010 -4.3251 -12.8727 -3.9798 12.1335 -36.2060 -5.6675 -5.9822 27.8892 0.4284 -6.9114 11.4806 5.5495 -2.7887 -1.6214 -9.1255 1.0190 -0.5324 13.9434 5.8217 -25.0003 5.8170 3.4066 -8.1705 0.0000 -0.0000 0.0000 -93.7462 -15.2436 35.2436 50.3141 -53.1214 -26.4252 -0.0000 0.0000 -106.0940 46.9485 55.5739 41.4431 -7.1250 0.0000 -0.0000 -163.1191 -84.9047 164.6603 0.0000 -0.0000 0.0000 83.9466 9.5453 -7.6597 -103.0790 59.3437 -71.3018 0.0000 -0.0000 -47.2464 -22.5188 16.3399 -6.6530 7.1250 -0.0000 -0.0000 3.4957 -12.3965 2.6688
0.00 0.00 0.00 187.1560 16.8496 202.8470 0.0000 0.0000 0.0000 -25.3060 11.9342 -6.4078 4.1418 12.3467 36.9699 -0.8078 16.9193 0.5442 7.5035 15.7417 50.7540 0.0000 0.0000 0.0000 9.7982 12.9574 -66.0319 -18.3612 -19.9355 85.2035 -0.5223 -0.8045 -13.9666 -3.5430 11.5261 -34.0753 -6.3254 -6.9617 24.7432 2.0550 -8.6477 10.2538 7.8256 -3.9384 -0.8888 -8.5797 2.8587 -0.5503 7.7645 6.4807 -23.3257 3.5202 3.9134 -7.5489 0.0000 -0.0000 0.0000 -89.2406 -12.8697 35.6409 68.3503 -58.1527 -41.3671 -0.0000 0.0000 -122.0060 46.9589 49.5070 39.1576 -7.1250 0.0000 -0.0000 78.4247 88.7678 77.2147 0.0000 -0.0000 0.0000 82.8094 21.3237 -1.5786 -112.5820 57.9826 -79.4241 0.0000 -0.0000 -32.6391 -23.9122 12.6107 -5.5292 7.1250 -0.0000 -0.0000 2.3213 -16.2357 1.5810
0.00 0.00 0.00 187.4310 19.8091 205.5260 0.0000 0.0000 0.0000 -27.3084 14.0331 3.9375 1.8235 8.4882 24.2072 -0.7036 21.9984 9.5259 6.9541 15.2931 48.7006 0.0000 0.0000 0.0000 8.1151 19.3270 -72.2112 -11.9312 -18.3614 65.7707 -0.3082 4.4838 -9.9041 -2.0227 8.9131 -25.5239 -3.6084 -6.6785 19.7267 2.0408 -8.0924 9.0534 5.7032 -3.7415 -0.3020 -3.7590 3.6345 -0.2068 2.0668 6.3009 -21.1979 0.8763 3.7161 -6.5915 -0.0000 0.0000 0.0000 -83.6852 -7.2894 40.0717 71.7521 -58.7036 -44.2656 -0.0000 0.0000 -127.9070 44.1648 46.9544 35.3675 -7.1250 0.0000 -0.0000 18.0714 85.9652 16.7786 -0.0000 0.0000 0.0000 87.0609 29.3769 7.8944 -118.6864 56.6499 -84.5638 0.0000 -0.0000 -15.2876 -25.4998 9.6457 -4.5693 7.1250 -0.0000 -0.0000 1.0500 -19.3168 0.6437
0.00 0.00 0.00 186.4020 22.6872 204.5770 0.0000 0.0000 0.0000 -30.8757 15.5313 12.0713 2.3144 9.4923 27.3477 -1.1649 28.1690 12.3523 6.7768 15.1411 48.0252 0.0000 0.0000 0.0000 14.5335 18.3016 -71.6669 -6.1867 -14.6069 45.7265 0.0828 5.4107 3.9120 -0.0177 0.8593 -2.3617 -4.2118 -6.1289 16.9923 4.7643 -7.3806 9.1846 8.5320 -3.5763 1.6628 -6.2476 3.9437 -3.7983 -1.6966 6.1232 -18.4580 0.2559 3.9923 -5.0964 -0.0000 -0.0000 0.0000 -87.2673 -4.0503 39.6611 57.5013 -55.6065 -32.2704 -0.0000 0.0000 -162.7230 54.1308 11.5856 15.5227 -7.1250 0.0000 -0.0000 26.2332 47.4020 1.6650 -0.0000 -0.0000 0.0000 84.8129 38.8930 28.8584 -120.7370 56.1103 -86.2714 0.0000 0.0000 5.7639 -28.3109 5.8217 -3.1276 7.1250 -0.0000 -0.0000 -1.1805 -23.3740 -0.6154
0.00 0.00 0.00 183.7160 23.1255 200.2110 0.0000 0.0000 0.0000 -33.2173 16.6899 12.6143 5.2012 13.6069 41.6849 -0.9300 25.7742 11.5791 6.9146 15.2595 48.5505 0.0000 0.0000 0.0000 17.4194 14.6952 -68.6688 -5.7751 -14.2068 44.0723 -0.0819 3.5255 7.8504 -3.8785 -11.9970 35.7213 -5.3512 -5.7189 19.0015 5.2253 -6.8074 9.6988 9.8155 -3.2692 1.3390 -7.8516 3.2279 -6.7738 -1.7477 5.5250 -16.3801 0.6271 3.7657 -4.4447 -0.0000 0.0000 0.0000 -89.9103 -2.0950 48.5626 43.9641 -50.2508 -21.4393 -0.0000 0.0000 -151.3020 34.1523 7.0063 4.7303 -7.1250 0.0000 -0.0000 6.3513 38.3545 -1.0445 -0.0000 0.0000 0.0000 82.1634 42.7540 41.4139 -115.8698 57.3137 -82.2019 0.0000 0.0000 15.7980 -30.2590 3.6900 -2.1502 7.1250 -0.0000 -0.0000 -2.7466 -25.7087 -1.2847
0.00 0.00 0.00 183.5800 23.6755 199.2060 0.0000 0.0000 0.0000 -32.8555 18.3624 8.8173 8.7289 16.6301 55.1478 -1.7067 28.3156 8.1976 6.1729 14.5939 45.6719 0.0000 0.0000 0.0000 18.6663 14.8057 -67.8897 -6.7028 -15.0764 47.7411 -0.0378 0.7094 4.0056 -3.0021 -10.6984 31.2695 -4.9685 -4.8949 19.0679 5.7772 -5.5994 9.6897 10.0489 -2.6238 1.0636 -8.6290 2.5234 -7.8135 -1.7807 4.7730 -15.7686 0.7982 3.4367 -4.0257 -0.0000 0.0000 0.0000 -91.6236 -0.6428 53.4423 32.4052 -42.8678 -13.0156 -0.0000 0.0000 -101.0550 -3.4072 27.6653 -1.5835 -7.1250 0.0000 -0.0000 -35.0038 54.0022 -8.5499 -0.0000 0.0000 0.0000 79.1137 43.9029 47.1208 -108.5070 58.6654 -75.9557 0.0000 0.0000 20.8376 -31.0766 2.9138 -1.7548 7.1250 -0.0000 -0.0000 -3.4097 -26.5756 -1.5265
0.00 0.00 0.00 184.8730 24.4804 198.5850 0.0000 0.0000 0.0000 -29.6206 21.4901 0.3945 15.6871 19.5480 77.2979 -3.8072 34.2456 -0.4791 4.0848 12.2725 36.7027 0.0000 0.0000 0.0000 14.1466 19.2751 -67.5571 -9.8475 -17.3232 58.9774 0.0075 3.5624 -2.1252 -6.9626 -15.3003 48.7328 -1.3320 -3.0274 19.6327 4.9863 -2.5293 9.6118 6.5771 -0.8321 -0.2628 -3.7888 0.4185 -9.3935 -2.9454 1.8104 -15.5224 -0.3592 1.7885 -3.4319 -0.0000 0.0000 0.0000 -90.5732 0.9106 55.0184 19.9847 -30.6239 -5.5235 -0.0000 0.0000 -52.9418 -36.7662 14.2606 -10.4288 -7.1250 0.0000 -0.0000 -49.7930 37.8389 13.1568 -0.0000 0.0000 0.0000 77.2062 43.2464 49.4049 -90.6092 59.9986 -60.5276 0.0000 0.0000 26.7491 -31.2475 1.9583 -1.1878 7.1250 -0.0000 -0.0000 -3.5940 -27.6840 -1.5156
0.00 0.00 0.00 187.8120 23.3559 194.7740 0.0000 0.0000 0.0000 -21.0539 23.7339 -3.9909 22.2649 19.8766 96.6352 -3.4987 31.7635 -4.8024 2.6832 10.1636 29.5081 0.0000 0.0000 0.0000 18.8532 16.0647 -62.3364 -13.0008 -18.7825 69.1280 -0.3637 3.3023 -10.7358 -0.0027 0.3376 -0.9276 3.4118 -2.7417 24.5070 5.2183 -0.3911 10.8907 3.7818 0.6550 -1.6346 -4.9022 -1.1064 -9.0844 -0.6836 0.2784 -17.5485 0.5593 1.2000 -4.2288 0.0000 0.0000 0.0000 -91.6872 1.0422 52.7758 14.7302 -23.7689 -3.1164 -0.0000 0.0000 -51.4712 -24.6525 31.8269 -13.6055 -7.1250 0.0000 -0.0000 -56.7020 53.0797 -15.1039 0.0000 0.0000 0.0000 76.0722 45.0700 47.9723 -61.7614 56.7613 -35.8106 0.0000 0.0000 27.7066 -29.9540 4.9552 -2.8497 7.1250 -0.0000 -0.0000 -2.4459 -24.2659 -1.2257
